<?xml version="1.0" standalone="no"?>
<!DOCTYPE svg PUBLIC "-//W3C//DTD SVG 20010904//EN"
 "http://www.w3.org/TR/2001/REC-SVG-20010904/DTD/svg10.dtd">
<svg version="1.0" xmlns="http://www.w3.org/2000/svg"
 width="120.000000pt" height="120.000000pt" viewBox="0 0 120.000000 120.000000"
 preserveAspectRatio="xMidYMid meet">

<g transform="translate(0.000000,120.000000) scale(0.100000,-0.100000)"
fill="#000000" stroke="none">
<path d="M916 1088 c5 -7 11 -37 15 -66 8 -54 30 -92 56 -92 16 0 15 -3 4 38
-5 17 -7 32 -5 32 12 0 34 -73 34 -111 l0 -42 -34 43 c-42 53 -126 111 -203
140 -72 27 -190 36 -265 21 -141 -30 -280 -139 -340 -268 -36 -75 -36 -76 -44
-185 -6 -66 -4 -78 9 -78 12 0 16 15 20 68 6 101 13 127 49 194 91 172 282
269 469 241 307 -48 476 -375 337 -653 -20 -40 -53 -82 -105 -130 -54 -51 -70
-70 -55 -70 31 0 117 75 161 140 60 91 76 147 76 270 -1 93 -4 113 -30 175
-26 62 -30 82 -30 170 0 110 -9 136 -55 160 -36 19 -74 20 -64 3z"/>
<path d="M1103 950 c-24 -10 -47 -42 -58 -80 -6 -21 -2 -20 25 13 39 46 52 42
16 -6 -32 -42 -33 -50 -3 -41 32 9 54 31 81 81 l25 43 -32 -1 c-18 0 -42 -4
-54 -9z"/>
<path d="M15 820 c4 -6 11 -8 16 -5 14 9 11 15 -7 15 -8 0 -12 -5 -9 -10z"/>
<path d="M773 715 c3 -16 9 -38 12 -47 7 -17 -4 -22 -51 -21 -5 0 -8 -12 -6
-27 2 -15 -3 -41 -12 -59 -16 -30 -16 -31 4 -31 11 0 20 -7 20 -15 0 -8 -7
-15 -15 -15 -8 0 -15 -9 -15 -20 0 -11 -3 -20 -7 -20 -5 0 -6 -22 -5 -50 4
-49 4 -50 37 -50 27 0 41 8 69 41 62 73 66 162 11 267 -37 71 -48 83 -42 47z"/>
</g>
</svg>
